# xmcd
#
# Track frame offsets:
#	150
#	21712
#	40462
#	63412
#	82875
#	100800
#	119325
#	141900
#	160987
#	181312
#	198412
#
# Disc length: 2828 seconds
#
# Revision: 1
# Processed by: cddbd v1.5.2PL0 Copyright (c) Steve Scherf et al.
# Submitted via: audiograbber 1.83.01
#
DISCID=9a0b0a0b
DTITLE=Various Artist - The Story of Tone Cool [CD1]
DYEAR=2005
DGENRE=Blues
TTITLE0=Susan Tedsechi - It Hurt So Bad
TTITLE1=North Mississippi All Stars - Shake 'Em On Down
TTITLE2=Rick Holmstrom - Pee Wee's Nightmare
TTITLE3=Hobex - Playin' Games
TTITLE4=Todd Thibaud - Is It Love?
TTITLE5=Double Trouble - Say One Thing
TTITLE6=Bernard Allison - Storms Of Life
TTITLE7=Paul Richell and Annie Raines - Moving To The Country
TTITLE8=Rod Piazza And The Mighty Flyers - Who Knows What's Goin' On
TTITLE9=North Mississippi All Stars - Sugar Town
TTITLE10=Susan Tedsechi - Blues On A Holiday
EXTD=
EXTT0=
EXTT1=
EXTT2=
EXTT3=
EXTT4=
EXTT5=
EXTT6=
EXTT7=
EXTT8=
EXTT9=
EXTT10=
PLAYORDER=
